<svg width="20" height="20" viewBox="0 0 20 20" fill="none" xmlns="http://www.w3.org/2000/svg">
<path fill-rule="evenodd" clip-rule="evenodd" d="M7.7801 0.247984C8.03612 0.196142 8.30226 0.246535 8.5216 0.388385C8.74095 0.530235 8.89608 0.752281 8.95382 1.00703C9.01157 1.26179 8.96734 1.52902 8.83059 1.75158C8.69385 1.97415 8.47545 2.13437 8.2221 2.19798C6.75594 2.5335 5.4138 3.2749 4.34921 4.33737C3.28461 5.39984 2.54054 6.74049 2.2021 8.20598C2.14282 8.46457 1.98325 8.68902 1.75849 8.82995C1.53373 8.97089 1.26218 9.01676 1.0036 8.95748C0.745013 8.89821 0.520565 8.73864 0.379631 8.51387C0.238698 8.28911 0.192823 8.01757 0.252099 7.75898C0.674865 5.92639 1.60521 4.2499 2.93659 2.92153C4.26797 1.59316 5.94655 0.666606 7.7801 0.247984ZM0.266099 12.298C0.213804 12.0431 0.262941 11.7778 0.403074 11.5585C0.543207 11.3393 0.763297 11.1832 1.0166 11.1236C1.26991 11.064 1.53648 11.1055 1.7597 11.2392C1.98292 11.373 2.14521 11.5885 2.2121 11.84C2.9021 14.775 5.2131 17.09 8.1471 17.785C8.27621 17.814 8.39828 17.8683 8.50625 17.9448C8.61422 18.0213 8.70593 18.1184 8.77608 18.2306C8.84622 18.3428 8.8934 18.4678 8.91488 18.5984C8.93636 18.7289 8.93171 18.8625 8.90121 18.9912C8.87071 19.12 8.81496 19.2414 8.73719 19.3485C8.65942 19.4555 8.56117 19.5461 8.44815 19.6149C8.33513 19.6837 8.20957 19.7294 8.07876 19.7493C7.94795 19.7692 7.81448 19.763 7.6861 19.731C5.88236 19.3005 4.23357 18.3777 2.92346 17.0653C1.61336 15.7529 0.693396 14.1025 0.266099 12.298ZM12.5041 19.684C12.2472 19.7503 11.9746 19.7118 11.746 19.5771C11.5175 19.4423 11.3519 19.2223 11.2856 18.9655C11.2193 18.7086 11.2577 18.4359 11.3925 18.2074C11.5272 17.9789 11.7472 17.8133 12.0041 17.747C13.1412 17.4524 14.1995 16.9112 15.1039 16.1618C16.0083 15.4124 16.7367 14.473 17.2374 13.4105C17.7381 12.348 17.9988 11.1882 18.001 10.0137C18.0032 8.83906 17.7468 7.67838 17.2501 6.61398C17.1944 6.49501 17.1627 6.36623 17.1568 6.235C17.1509 6.10377 17.1709 5.97266 17.2156 5.84916C17.2604 5.72566 17.3291 5.61218 17.4177 5.51521C17.5063 5.41823 17.6131 5.33966 17.7321 5.28398C17.8511 5.2283 17.9799 5.1966 18.1111 5.19069C18.2423 5.18478 18.3734 5.20477 18.4969 5.24953C18.6204 5.29429 18.7339 5.36293 18.8309 5.45155C18.9278 5.54016 19.0064 5.64701 19.0621 5.76598C19.6837 7.09655 20.0046 8.54766 20.0022 10.0163C19.9998 11.4848 19.674 12.9349 19.048 14.2634C18.4221 15.5919 17.5112 16.7663 16.3803 17.7031C15.2493 18.6399 13.9259 19.3162 12.5041 19.684ZM16.5821 2.46998C16.681 2.55646 16.7619 2.66157 16.8201 2.7793C16.8784 2.89703 16.9129 3.02509 16.9217 3.15616C16.9305 3.28723 16.9133 3.41875 16.8713 3.5432C16.8292 3.66765 16.7631 3.7826 16.6766 3.88148C16.5901 3.98037 16.485 4.06125 16.3673 4.11952C16.2495 4.17778 16.1215 4.21229 15.9904 4.22107C15.8594 4.22984 15.7278 4.21271 15.6034 4.17066C15.4789 4.12861 15.364 4.06246 15.2651 3.97598C14.2997 3.12978 13.1443 2.5291 11.8971 2.22498C11.767 2.19642 11.6439 2.14216 11.5351 2.06538C11.4263 1.98861 11.3339 1.89087 11.2633 1.77789C11.1928 1.66492 11.1455 1.53899 11.1243 1.4075C11.1031 1.27602 11.1084 1.14162 11.1398 1.01219C11.1713 0.882767 11.2282 0.760927 11.3074 0.653824C11.3866 0.54672 11.4863 0.456511 11.6008 0.388492C11.7154 0.320472 11.8423 0.276013 11.9742 0.257723C12.1062 0.239433 12.2404 0.247681 12.3691 0.281984C13.929 0.661646 15.3743 1.41223 16.5821 2.46998Z" fill="#141221" fill-opacity="0.9"/>
</svg>
